<?xml version="1.0" encoding="UTF-8"?>
<!DOCTYPE svg PUBLIC "-//W3C//DTD SVG 1.1//EN" "http://www.w3.org/Graphics/SVG/1.1/DTD/svg11.dtd">
<!-- Creator: CorelDRAW 2019 (64 Bit) -->
<svg xmlns="http://www.w3.org/2000/svg" xml:space="preserve" width="238.919mm" height="217.994mm" version="1.1" style="shape-rendering:geometricPrecision; text-rendering:geometricPrecision; image-rendering:optimizeQuality; fill-rule:evenodd; clip-rule:evenodd"
viewBox="0 0 23891.9 21799.4"
 xmlns:xlink="http://www.w3.org/1999/xlink"
 data-name="Layer 1">
 <defs>
  <style type="text/css">
   <![CDATA[
    .fil7 {fill:black}
    .fil0 {fill:#262626}
    .fil4 {fill:#8A5117}
    .fil5 {fill:#A0616A}
    .fil1 {fill:#E1DECE}
    .fil6 {fill:#F2C215}
    .fil3 {fill:#F2F2F2}
    .fil2 {fill:black;fill-opacity:0.101961}
   ]]>
  </style>
 </defs>
 <g id="Camada_x0020_1">
  <metadata id="CorelCorpID_0Corel-Layer"/>
  <rect class="fil0" x="3280.84" y="8342.65" width="18547.29" height="10345.21"/>
  <path class="fil1" d="M3950.74 9224.08l1221.13 -458.96c-353.43,-428.85 -823.2,-866.92 -1319,-1276.76l-1684.67 285.23 1390.79 -522.73c-1226.5,-969.96 -2500.47,-1727.76 -2500.47,-1727.76 0,0 -1392.51,3899.35 -983.2,5631.52 237.41,1004.69 877.18,1797.73 1679.16,2214.28l32.63 -2238.27 435.63 2432.29c264.83,84.21 541.81,127.68 820.1,127.68 207.81,0 415.63,-24.37 617.84,-71.8 1570.79,-371.18 2512.35,-2076.28 2103.03,-3808.45 -61.31,-259.47 -210.14,-537.43 -418.36,-822.48l-1394.61 236.21z"/>
  <path class="fil2" d="M4733.14 12416.39c-80.15,-138.82 -474.97,-60.91 -881.86,174.01 -406.9,234.92 -671.78,537.89 -591.63,676.71 80.15,138.82 474.97,60.92 881.87,-174 406.89,-234.92 671.77,-537.9 591.62,-676.72z"/>
  <path class="fil3" d="M8858.53 18687.86l-1668.47 0c-239.09,-224.53 -462.4,-465.87 -667.67,-720.96l-1163.11 -1960.03 -1457.33 -2456.66 -162.19 -273.05 -133.35 -224.9 720.73 -400.31 153.19 204.26 29.9 39.69 175.68 233.89 1183.22 1576.12 129.38 -1183.22 480.09 -0.29 -394.49 1470.03 2774.42 3695.43z"/>
  <path class="fil1" d="M19375.29 9327.29l-1381.81 -137.89c246.19,-537.9 609.54,-1117.13 1007.39,-1674.45l1811.1 -167.71 -1573.8 -157.05c996.21,-1333.52 2099.33,-2461.78 2099.33,-2461.78 0,0 2499.81,3630.13 2552.87,5524.06 30.78,1098.52 -410.28,2089.43 -1121.27,2737.46l-646.22 -2293.58 217.63 2621.35c-437.83,279.87 -944.42,436.58 -1463.98,451.31 -1717.32,47.97 -3152.63,-1448.35 -3205.69,-3342.28 -7.95,-283.7 69.06,-610.38 205.24,-960.6l1499.21 -138.84z"/>
  <path class="fil2" d="M20399.03 12763c-482.87,-130.29 -910.36,-102.35 -954.81,62.4 -44.45,164.74 310.96,403.92 793.83,534.21 482.88,130.29 910.36,102.35 954.82,-62.4 44.45,-164.74 -310.97,-403.92 -793.84,-534.21z"/>
  <path class="fil3" d="M20777.74 13170.5l-8.2 29.37 -67.47 238.92 -92.08 325.17 0 0.26 -826.82 2925.5 -557.74 1973c-9.53,8.47 -19.05,16.67 -28.84,25.14l-1585.38 0 1148.29 -2842.68 -808.04 -1404.14 494.24 -131.5 456.94 1181.36 785.81 -1944.69 0.26 -0.26 116.42 -288.66 19.84 -49.21 101.6 -252.15 824.71 208.23 26.46 6.34z"/>
  <path class="fil4" d="M10239.94 19357.31l-660.56 2442.08 2261.93 0 260.22 -240.21 100.09 240.21 2422.06 0c0,0 260.22,-1581.35 -60.05,-1701.45 -320.27,-120.1 -4323.69,-740.63 -4323.69,-740.63z"/>
  <circle class="fil5" cx="12782.11" cy="8347.92" r="1381.18"/>
  <path class="fil5" d="M11751.23 9038.51c0,0 260.22,1961.67 -140.12,2181.86 -400.34,220.19 2382.03,240.2 2382.03,240.2 0,0 -620.53,-1701.45 -340.29,-2221.9l-1901.62 -200.16z"/>
  <path class="fil6" d="M12682.03 10890.09c0,0 -700.77,-104.67 -850.81,-452.68l-2111.72 933.09c0,0 380.32,2782.37 600.51,3282.8l-280.24 5024.28c0,0 1961.67,1301.11 4603.93,600.51l660.56 -5524.71 720.61 -3282.8 -2307.17 -926.62c0,0 -455.18,306.1 -1035.67,346.13z"/>
  <path class="fil5" d="M14143.27 17215.48c0,0 -2542.17,-80.07 -2362.01,680.58 180.16,760.65 2522.15,-40.03 2522.15,-40.03l-160.14 -640.55z"/>
  <path class="fil7" d="M11633.1 7041.46l-258.25 -103.39c0,0 539.97,-594.48 1291.24,-542.78l-211.3 -232.62c0,0 516.49,-206.77 986.03,336.01 246.83,285.33 532.41,620.71 710.44,998.52l276.56 0 -115.43 254.16 404 254.16 -414.66 -45.66c14.4,81.81 21.86,165.04 21.86,248.27 0,57.91 -3.64,116 -10.58,173.4 -17.82,140.22 -89.47,268.21 -199.75,356.71l-0.02 0.02c0,0 -320.27,-662.94 -320.27,-766.33l0 258.47c0,0 -258.25,-232.62 -258.25,-387.7l-140.86 180.93 -70.43 -284.32 -868.65 284.32 140.86 -232.62 -539.97 77.54 211.3 -284.32c0,0 -610.4,336.01 -633.88,620.32 -23.47,284.31 -202.14,553.72 -202.14,553.72 0,0 -478.68,-1329.12 202.15,-1716.81z"/>
  <path class="fil7" d="M13312.56 16403.61l0 340.71c-0.03,6.53 -5.34,11.84 -11.89,11.86l-8.44 0.02 0 1774.88c-0.01,102.25 -82.94,185.18 -185.21,185.18l-1109.01 0.01c-102.25,-0.01 -185.14,-82.93 -185.14,-185.17 0,0 0,-0.02 0,-0.02l0 -1712.63 -6.12 0c0,-0.02 -0.01,-0.02 -0.01,-0.02 -4.62,0 -8.37,-3.73 -8.39,-8.35l0 -193.91c0,0 0,0 0,0 0,-4.64 3.76,-8.4 8.4,-8.4l6.12 0.01 0 -73.04 -6.17 0.01c-4.85,-0.04 -8.77,-3.97 -8.77,-8.82 0,-0.01 0,-0.01 0,-0.02l0 -191.24c0.01,-4.86 3.93,-8.78 8.77,-8.79l6.17 0.02 0 -99.7 -6.27 -0.01c0,-0.01 -0.01,-0.01 -0.01,-0.01 -4.29,0 -7.77,-3.47 -7.77,-7.76l0 -104.39c0,-0.01 0,-0.01 0,-0.02 0,-4.3 3.48,-7.79 7.78,-7.81l6.27 0.01 0 -211.34c0,-102.24 82.91,-185.15 185.14,-185.15l1109.03 0.01c-0.01,-0.01 -0.01,-0.01 -0.01,-0.01 102.24,0 185.17,82.91 185.19,185.15l0 496.85 8.46 0.01c6.55,0.01 11.86,5.32 11.88,11.87l0 0.01z"/>
  <circle class="fil3" cx="12554.38" cy="16500.37" r="181.56"/>
  <path class="fil6" d="M15404.34 11470.58l620.53 0c0,0 1981.69,4323.69 1501.28,4844.13 -480.41,520.44 -3382.88,1941.66 -3382.88,1941.66 0,0 -220.19,-1100.94 -420.36,-1100.94l2001.71 -1241.06 -980.84 -2342 660.56 -2101.79z"/>
  <path class="fil5" d="M10960.56 17035.33c0,0 2261.93,1201.02 1841.57,1721.47 -420.36,520.45 -2442.08,-920.79 -2442.08,-920.79l600.51 -800.68z"/>
  <path class="fil6" d="M9999.74 11390.52l-280.24 0c0,0 -400.34,380.32 -520.44,1241.06l-1162.91 2591.37c-33.72,75.27 -51.31,157.14 -51.31,239.72 0,89.09 20.38,177.11 59.48,257.12 258.08,528.58 937.38,1721.37 1955.44,2076.15l520.44 400.34c0,0 -60.05,-980.84 760.65,-980.84l-1401.22 -1521.25 540.47 -1761.51 -420.36 -2542.16z"/>
  <rect class="fil0" x="12567.71" y="0.01" width="6892.95" height="5317.42"/>
  <rect class="fil1" x="13760.29" y="1914.71" width="962.83" height="2538.36"/>
  <rect class="fil1" x="15532.78" y="2899.42" width="962.83" height="1553.65"/>
  <rect class="fil1" x="17305.24" y="864.35" width="962.83" height="3588.71"/>
  <circle class="fil6" cx="16014.2" cy="1914.72" r="481.41"/>
  <rect class="fil0" x="4007.9" y="1022.67" width="6892.95" height="5317.42"/>
  <g id="_2509405197952">
   <path class="fil6" d="M5058.25 5245.97c0,0 65.65,-1772.47 1378.59,-1488 1312.94,284.47 3260.48,-1356.71 3260.48,-1356.71l-4639.07 2844.71zm0 0l0 0 0 0z"/>
  </g>
  <polygon class="fil1" points="5069.19,5158.46 5069.19,1766.68 4631.54,1766.68 4631.54,5158.46 4631.54,5574.2 4631.54,5596.1 10277.2,5596.1 10277.2,5158.46 "/>
 </g>
</svg>
